<?xml version="1.0" encoding="UTF-8" standalone="no"?>
<!DOCTYPE svg PUBLIC "-//W3C//DTD SVG 1.1//EN" "http://www.w3.org/Graphics/SVG/1.1/DTD/svg11.dtd">
<svg version="1.1" xmlns="http://www.w3.org/2000/svg" xmlns:xlink="http://www.w3.org/1999/xlink" preserveAspectRatio="xMidYMid meet" viewBox="0 0 24 24" width="24" height="24"><defs><path d="M11.98 1.64C6.47 1.64 1.95 5.9 1.52 11.3C2.08 11.54 6.58 13.4 7.15 13.63C7.62 13.3 8.2 13.11 8.82 13.11C8.87 13.11 8.93 13.11 8.98 13.12C9.23 12.75 11.24 9.85 11.49 9.49C11.49 9.47 11.49 9.46 11.49 9.44C11.49 7.25 13.26 5.48 15.45 5.48C17.63 5.48 19.41 7.25 19.41 9.44C19.41 11.62 17.63 13.4 15.45 13.4C15.42 13.4 15.39 13.4 15.36 13.4C15 13.65 12.14 15.69 11.79 15.94C11.79 15.99 11.79 16.04 11.79 16.08C11.79 17.72 10.46 19.06 8.82 19.06C7.38 19.06 6.18 18.03 5.91 16.67C5.5 16.5 2.28 15.17 1.88 15.01C3.13 19.41 7.18 22.64 11.98 22.64C17.78 22.64 22.48 17.94 22.48 12.14C22.48 6.35 17.78 1.64 11.98 1.64" id="a14a7F3qy"></path><path d="M8.1 17.58C7.33 17.26 6.9 17.08 6.81 17.04C7.04 17.52 7.43 17.92 7.96 18.14C9.09 18.61 10.4 18.07 10.87 16.94C11.1 16.39 11.1 15.78 10.88 15.23C10.65 14.68 10.22 14.25 9.67 14.02C9.13 13.79 8.54 13.8 8.03 13.99C8.16 14.05 9.23 14.49 9.36 14.55C10.2 14.89 10.59 15.86 10.25 16.69C9.9 17.53 8.94 17.93 8.1 17.58" id="cnTVur7QI"></path><path d="M13.47 9.43C13.47 8.34 14.36 7.45 15.45 7.45C16.54 7.45 17.43 8.34 17.43 9.43C17.43 10.53 16.54 11.42 15.45 11.42C14.36 11.42 13.47 10.53 13.47 9.43M18.08 9.44C18.08 7.98 16.9 6.8 15.45 6.8C13.99 6.8 12.81 7.98 12.81 9.44C12.81 10.89 13.99 12.08 15.45 12.08C16.9 12.08 18.08 10.89 18.08 9.44" id="f2SVZd42WD"></path></defs><g><g><g><use xlink:href="#a14a7F3qy" opacity="1" fill="#000000" fill-opacity="1"></use><g><use xlink:href="#a14a7F3qy" opacity="1" fill-opacity="0" stroke="#000000" stroke-width="1" stroke-opacity="0"></use></g></g><g><use xlink:href="#cnTVur7QI" opacity="1" fill="#000000" fill-opacity="1"></use><g><use xlink:href="#cnTVur7QI" opacity="1" fill-opacity="0" stroke="#000000" stroke-width="1" stroke-opacity="0"></use></g></g><g><use xlink:href="#f2SVZd42WD" opacity="1" fill="#000000" fill-opacity="1"></use><g><use xlink:href="#f2SVZd42WD" opacity="1" fill-opacity="0" stroke="#000000" stroke-width="1" stroke-opacity="0"></use></g></g></g></g></svg>